<svg xmlns="http://www.w3.org/2000/svg" xmlns:xlink="http://www.w3.org/1999/xlink" version="1.1" x="0px" y="0px" viewBox="50 450 100 125" enable-background="new 50 450 100 100" xml:space="preserve"><path d="M126.3,490.7c-1.8-18.9-18.6-32.8-37.6-31c-5.2,0.5-10,2.1-14.2,4.6c0.9-0.2,1.8-0.3,2.7-0.4c15.5-1.5,29.3,9.9,30.8,25.5  c1.5,15.5-9.9,29.3-25.5,30.8c-2.8,0.3-5.4,0.1-8-0.4l-2.1,2.6L61,536.7l5.5,3.9l11.4-15.2h0c5.3,2.4,11.2,3.5,17.4,2.9  C114.2,526.4,128.1,509.6,126.3,490.7z"/><polygon points="95.6,482.6 81.4,482.9 68.3,499.6 76.9,506.4 82.5,499.2 135.2,540.5 139,535.7 86.3,494.3 "/></svg>